<?xml version="1.0" encoding="UTF-8"?>
<svg id="Layer_2" xmlns="http://www.w3.org/2000/svg" version="1.1" viewBox="0 0 750 750">
  <!-- Generator: Adobe Illustrator 29.3.0, SVG Export Plug-In . SVG Version: 2.1.0 Build 146)  -->
  <defs>
    <style>
      .st0 {
        display: none;
        fill: #fff;
      }

      .st1 {
        fill: #6b3fa0;
      }
    </style>
  </defs>
  <path id="white" class="st0" d="M516.65,503.84c33.9-54.41,36.63-121.84,34.38-184.19-2.92-64.32-19.64-135.56-74.66-175.23-47.94-34.24-113.44-39.31-168.6-21.31-22.73,7.52-42.99,21.17-60.06,37.92-8.59,8.43-16.03,17.97-22.34,28.22l-2.41,3.92c-4.87,7.9-9.09,16.19-12.61,24.78l-1.86,4.53c-3.58,8.7-6.4,17.7-8.4,26.89-8.12,37.39-8.82,78.55-6.1,117.02.96,13.64,2.87,27.2,5.64,40.6,2.31,11.2,5.43,22.22,9.31,32.98l.9,2.49c2.91,8.05,6.41,15.87,10.48,23.39,5.3,9.81,11.39,19.17,18.21,27.99h0c3.86,4.98,8.14,9.62,12.79,13.87l3.54,3.22c6.06,5.52,12.47,10.64,19.21,15.31,6.41,4.45,13.24,8.25,20.4,11.35l4.84,2.1c4.98,2.16,10.09,4.01,15.3,5.55,5.25,1.55,11.84,3.49,15.44,4.56,1.77.52,3.56.98,5.38,1.32,17.53,3.29,40.97,4.33,58.09,3.49,7.7,9.49,23.55,28.42,31.52,37.65l17.28,15.55,17.77,12.34,17.77,6.91,19.01,4.2,19.26.74s18.27-3.21,18.27-3.21c7.78-2.22,19.91-4.9,28.8-13.45,10.42-10.03,22.01-24.5,30.45-35.71l-76.98-75.79ZM495.42,555.1c-13.71-11.59-32.92-27.1-46.33-39.09-15.35-12.99-50.59-34.7-37.15-48.71,17.03-17.77,25.04-25.39,16.79-47.4-6.67-17.77-28.57-24.48-45.2-17.86-30.59,12.18-30.59,57.36,4.88,64.51-73.69,16.03-78.55-52.01-79.93-106.57-.13-39.94-6.01-116.21,19.9-146.39,22.44-25.89,69.81-25.8,89.24,3.47,25.12,36.45,17.84,121.64,15.55,166.29,27.73,11.18,45.26,41.23,35.57,71.66-4.03,12.65-9.53,27.44-1.33,40,10.85,16.61,27.63,30.91,42.17,44.27l-14.15,15.8ZM547.29,602.19l-32.46-29.01,14.16-15.85,32.46,29.01-14.16,15.85Z"/>
  <path id="violet" class="st1" d="M516.65,503.84c33.9-54.41,36.63-121.84,34.38-184.19-2.92-64.32-19.64-135.56-74.66-175.23-47.94-34.24-113.44-39.31-168.6-21.31-22.73,7.52-42.99,21.17-60.06,37.92-8.59,8.43-16.03,17.97-22.34,28.22l-2.41,3.92c-4.87,7.9-9.09,16.19-12.61,24.78l-1.86,4.53c-3.58,8.7-6.4,17.7-8.4,26.89-8.12,37.39-8.82,78.55-6.1,117.02.96,13.64,2.87,27.2,5.64,40.6,2.31,11.2,5.43,22.22,9.31,32.98l.9,2.49c2.91,8.05,6.41,15.87,10.48,23.39,5.3,9.81,11.39,19.17,18.21,27.99h0c3.86,4.98,8.14,9.62,12.79,13.87l3.54,3.22c6.06,5.52,12.47,10.64,19.21,15.31,6.41,4.45,13.24,8.25,20.4,11.35l4.84,2.1c4.98,2.16,10.09,4.01,15.3,5.55,5.25,1.55,11.84,3.49,15.44,4.56,1.77.52,3.56.98,5.38,1.32,17.53,3.29,40.97,4.33,58.09,3.49,7.7,9.49,23.55,28.42,31.52,37.65l17.28,15.55,17.77,12.34,17.77,6.91,19.01,4.2,19.26.74s18.27-3.21,18.27-3.21c7.78-2.22,19.91-4.9,28.8-13.45,10.42-10.03,22.01-24.5,30.45-35.71l-76.98-75.79ZM495.42,555.1c-13.71-11.59-32.92-27.1-46.33-39.09-15.35-12.99-50.59-34.7-37.15-48.71,17.03-17.77,25.04-25.39,16.79-47.4-6.67-17.77-28.57-24.48-45.2-17.86-30.59,12.18-30.59,57.36,4.88,64.51-73.69,16.03-78.55-52.01-79.93-106.57-.13-39.94-6.01-116.21,19.9-146.39,22.44-25.89,69.81-25.8,89.24,3.47,25.12,36.45,17.84,121.64,15.55,166.29,27.73,11.18,45.26,41.23,35.57,71.66-4.03,12.65-9.53,27.44-1.33,40,10.85,16.61,27.63,30.91,42.17,44.27l-14.15,15.8ZM547.29,602.19l-32.46-29.01,14.16-15.85,32.46,29.01-14.16,15.85Z"/>
</svg>